<?xml version="1.0" encoding="UTF-8"?>
<svg xmlns="http://www.w3.org/2000/svg" xmlns:xlink="http://www.w3.org/1999/xlink" width="959.76pt" height="540pt" viewBox="0 0 959.76 540">
<defs>
<g>
<g id="glyph-0-0">
<path d="M 6.203125 0 L 6.203125 -47.375 L 21.40625 -47.375 C 26.164062 -47.375 29.972656 -46.410156 32.828125 -44.484375 C 35.679688 -42.566406 37.109375 -39.632812 37.109375 -35.6875 C 37.109375 -33.207031 36.40625 -30.992188 35 -29.046875 C 33.601562 -27.097656 31.757812 -25.828125 29.46875 -25.234375 C 32.75 -24.703125 35.363281 -23.394531 37.3125 -21.3125 C 39.257812 -19.238281 40.234375 -16.675781 40.234375 -13.625 C 40.234375 -10.757812 39.597656 -8.3125 38.328125 -6.28125 C 37.066406 -4.25 35.15625 -2.691406 32.59375 -1.609375 C 30.039062 -0.535156 26.816406 0 22.921875 0 Z M 12.53125 -5.28125 L 22.8125 -5.28125 C 24.800781 -5.28125 26.640625 -5.53125 28.328125 -6.03125 C 30.023438 -6.539062 31.378906 -7.429688 32.390625 -8.703125 C 33.398438 -9.984375 33.90625 -11.753906 33.90625 -14.015625 C 33.90625 -16.734375 32.914062 -18.757812 30.9375 -20.09375 C 28.96875 -21.4375 26.257812 -22.109375 22.8125 -22.109375 L 12.53125 -22.109375 Z M 12.53125 -27.25 L 21.375 -27.25 C 24.414062 -27.25 26.738281 -27.945312 28.34375 -29.34375 C 29.957031 -30.738281 30.765625 -32.617188 30.765625 -34.984375 C 30.765625 -36.585938 30.398438 -37.921875 29.671875 -38.984375 C 28.941406 -40.054688 27.878906 -40.851562 26.484375 -41.375 C 25.085938 -41.90625 23.382812 -42.171875 21.375 -42.171875 L 12.53125 -42.171875 Z M 12.53125 -27.25 "/>
</g>
<g id="glyph-0-1">
<path d="M 15.53125 0 C 12.726562 0 10.585938 -0.4375 9.109375 -1.3125 C 7.640625 -2.195312 6.632812 -3.46875 6.09375 -5.125 C 5.550781 -6.78125 5.28125 -8.769531 5.28125 -11.09375 L 5.28125 -47.375 L 11.125 -47.375 L 11.125 -11.375 C 11.125 -9.238281 11.398438 -7.601562 11.953125 -6.46875 C 12.503906 -5.34375 13.820312 -4.78125 15.90625 -4.78125 L 17.5 -4.78125 L 17.5 0 Z M 15.53125 0 "/>
</g>
<g id="glyph-0-2">
<path d="M 14.5 0.640625 C 12.53125 0.640625 10.726562 0.261719 9.09375 -0.484375 C 7.46875 -1.242188 6.164062 -2.351562 5.1875 -3.8125 C 4.21875 -5.28125 3.734375 -7.097656 3.734375 -9.265625 C 3.734375 -12.335938 4.691406 -14.671875 6.609375 -16.265625 C 8.535156 -17.859375 11.257812 -18.941406 14.78125 -19.515625 C 18.300781 -20.085938 22.421875 -20.398438 27.140625 -20.453125 L 27.140625 -22.84375 C 27.140625 -25.78125 26.410156 -27.789062 24.953125 -28.875 C 23.503906 -29.96875 21.664062 -30.515625 19.4375 -30.515625 C 17.0625 -30.515625 15.0625 -29.914062 13.4375 -28.71875 C 11.820312 -27.519531 11.015625 -25.632812 11.015625 -23.0625 L 5.3125 -23.0625 C 5.3125 -25.875 5.914062 -28.144531 7.125 -29.875 C 8.332031 -31.613281 10 -32.882812 12.125 -33.6875 C 14.25 -34.488281 16.6875 -34.890625 19.4375 -34.890625 C 21.195312 -34.890625 22.878906 -34.722656 24.484375 -34.390625 C 26.085938 -34.066406 27.53125 -33.46875 28.8125 -32.59375 C 30.09375 -31.726562 31.109375 -30.515625 31.859375 -28.953125 C 32.609375 -27.390625 32.984375 -25.378906 32.984375 -22.921875 L 32.984375 0 L 27.5 0 L 27.25 -5.203125 C 25.675781 -3.441406 23.847656 -2.023438 21.765625 -0.953125 C 19.691406 0.105469 17.269531 0.640625 14.5 0.640625 Z M 16.046875 -3.875 C 18.398438 -3.875 20.515625 -4.425781 22.390625 -5.53125 C 24.265625 -6.632812 25.835938 -8.03125 27.109375 -9.71875 L 27.109375 -16.6875 C 20.859375 -16.613281 16.378906 -16.023438 13.671875 -14.921875 C 10.960938 -13.816406 9.609375 -12.007812 9.609375 -9.5 C 9.609375 -7.789062 10.15625 -6.425781 11.25 -5.40625 C 12.34375 -4.382812 13.941406 -3.875 16.046875 -3.875 Z M 16.046875 -3.875 "/>
</g>
<g id="glyph-0-3">
<path d="M 19.609375 0.59375 C 16.503906 0.59375 13.753906 -0.0546875 11.359375 -1.359375 C 8.972656 -2.660156 7.101562 -4.617188 5.75 -7.234375 C 4.40625 -9.847656 3.734375 -13.128906 3.734375 -17.078125 C 3.734375 -21.015625 4.394531 -24.300781 5.71875 -26.9375 C 7.039062 -29.582031 8.894531 -31.566406 11.28125 -32.890625 C 13.664062 -34.222656 16.441406 -34.890625 19.609375 -34.890625 C 22.253906 -34.890625 24.640625 -34.453125 26.765625 -33.578125 C 28.890625 -32.710938 30.585938 -31.40625 31.859375 -29.65625 C 33.128906 -27.90625 33.796875 -25.691406 33.859375 -23.015625 L 28.0625 -23.015625 C 27.914062 -25.222656 27.113281 -26.960938 25.65625 -28.234375 C 24.207031 -29.503906 22.226562 -30.140625 19.71875 -30.140625 C 16.382812 -30.140625 13.894531 -28.992188 12.25 -26.703125 C 10.601562 -24.410156 9.78125 -21.203125 9.78125 -17.078125 C 9.78125 -14.328125 10.144531 -11.992188 10.875 -10.078125 C 11.601562 -8.171875 12.707031 -6.707031 14.1875 -5.6875 C 15.664062 -4.664062 17.507812 -4.15625 19.71875 -4.15625 C 22.226562 -4.15625 24.269531 -4.804688 25.84375 -6.109375 C 27.414062 -7.410156 28.234375 -9.316406 28.296875 -11.828125 L 34.109375 -11.828125 C 34.035156 -9.054688 33.359375 -6.75 32.078125 -4.90625 C 30.804688 -3.0625 29.082031 -1.679688 26.90625 -0.765625 C 24.738281 0.136719 22.304688 0.59375 19.609375 0.59375 Z M 19.609375 0.59375 "/>
</g>
<g id="glyph-0-4">
<path d="M 5.671875 0 L 5.671875 -47.375 L 11.546875 -47.375 L 11.546875 -18.125 L 27.03125 -34.28125 L 33.96875 -34.28125 L 18.484375 -18.234375 L 35.375 0 L 28.0625 0 L 11.546875 -17.8125 L 11.546875 0 Z M 5.671875 0 "/>
</g>
<g id="glyph-0-5">
</g>
<g id="glyph-1-0">
<path d="M 6.203125 0 L 6.203125 -47.40625 L 21.40625 -47.40625 C 26.175781 -47.40625 29.988281 -46.441406 32.84375 -44.515625 C 35.695312 -42.585938 37.125 -39.648438 37.125 -35.703125 C 37.125 -33.222656 36.421875 -31.003906 35.015625 -29.046875 C 33.617188 -27.097656 31.773438 -25.832031 29.484375 -25.25 C 32.765625 -24.707031 35.378906 -23.394531 37.328125 -21.3125 C 39.273438 -19.238281 40.25 -16.675781 40.25 -13.625 C 40.25 -10.757812 39.613281 -8.3125 38.34375 -6.28125 C 37.082031 -4.25 35.171875 -2.691406 32.609375 -1.609375 C 30.046875 -0.535156 26.816406 0 22.921875 0 Z M 12.53125 -5.28125 L 22.828125 -5.28125 C 24.816406 -5.28125 26.65625 -5.53125 28.34375 -6.03125 C 30.039062 -6.539062 31.394531 -7.4375 32.40625 -8.71875 C 33.414062 -10 33.921875 -11.765625 33.921875 -14.015625 C 33.921875 -16.742188 32.929688 -18.773438 30.953125 -20.109375 C 28.984375 -21.441406 26.273438 -22.109375 22.828125 -22.109375 L 12.53125 -22.109375 Z M 12.53125 -27.265625 L 21.375 -27.265625 C 24.425781 -27.265625 26.753906 -27.960938 28.359375 -29.359375 C 29.972656 -30.753906 30.78125 -32.632812 30.78125 -35 C 30.78125 -36.601562 30.414062 -37.9375 29.6875 -39 C 28.957031 -40.070312 27.894531 -40.867188 26.5 -41.390625 C 25.101562 -41.921875 23.394531 -42.1875 21.375 -42.1875 L 12.53125 -42.1875 Z M 12.53125 -27.265625 "/>
</g>
<g id="glyph-1-1">
<path d="M 19.71875 0.5625 C 16.363281 0.5625 13.488281 -0.144531 11.09375 -1.5625 C 8.695312 -2.988281 6.867188 -5.019531 5.609375 -7.65625 C 4.359375 -10.300781 3.734375 -13.441406 3.734375 -17.078125 C 3.734375 -20.816406 4.359375 -24.015625 5.609375 -26.671875 C 6.867188 -29.335938 8.695312 -31.382812 11.09375 -32.8125 C 13.488281 -34.25 16.363281 -34.96875 19.71875 -34.96875 C 23.144531 -34.96875 26.070312 -34.25 28.5 -32.8125 C 30.9375 -31.382812 32.804688 -29.335938 34.109375 -26.671875 C 35.410156 -24.015625 36.0625 -20.816406 36.0625 -17.078125 C 36.0625 -13.441406 35.410156 -10.300781 34.109375 -7.65625 C 32.804688 -5.019531 30.9375 -2.988281 28.5 -1.5625 C 26.070312 -0.144531 23.144531 0.5625 19.71875 0.5625 Z M 19.71875 -4.125 C 22.257812 -4.125 24.28125 -4.679688 25.78125 -5.796875 C 27.28125 -6.910156 28.359375 -8.445312 29.015625 -10.40625 C 29.671875 -12.363281 30 -14.585938 30 -17.078125 C 30 -19.617188 29.671875 -21.882812 29.015625 -23.875 C 28.359375 -25.875 27.28125 -27.441406 25.78125 -28.578125 C 24.28125 -29.710938 22.257812 -30.28125 19.71875 -30.28125 C 17.257812 -30.28125 15.304688 -29.710938 13.859375 -28.578125 C 12.410156 -27.441406 11.367188 -25.875 10.734375 -23.875 C 10.109375 -21.882812 9.796875 -19.617188 9.796875 -17.078125 C 9.796875 -14.585938 10.109375 -12.363281 10.734375 -10.40625 C 11.367188 -8.445312 12.410156 -6.910156 13.859375 -5.796875 C 15.304688 -4.679688 17.257812 -4.125 19.71875 -4.125 Z M 19.71875 -4.125 "/>
</g>
<g id="glyph-1-2">
<path d="M 0.3125 0 L 12.921875 -18.625 L 15.421875 -20.5625 L 24.15625 -34.296875 L 30.46875 -34.296875 L 18.703125 -17.046875 L 16.453125 -15.171875 L 6.546875 0 Z M 25.328125 0 L 15.390625 -15.171875 L 13.0625 -17.015625 L 1.4375 -34.296875 L 7.75 -34.296875 L 16.453125 -20.5625 L 18.8125 -18.84375 L 31.59375 0 Z M 25.328125 0 "/>
</g>
<g id="glyph-2-0">
<path d="M 4.15625 0 L 4.15625 -31.75 L 8.390625 -31.75 L 8.390625 0 Z M 4.15625 0 "/>
</g>
<g id="glyph-2-1">
<path d="M 3.796875 0 L 3.796875 -22.984375 L 7.578125 -22.984375 L 7.71875 -19.4375 C 8.425781 -20.363281 9.4375 -21.238281 10.75 -22.0625 C 12.070312 -22.894531 13.765625 -23.3125 15.828125 -23.3125 C 18.347656 -23.3125 20.179688 -22.566406 21.328125 -21.078125 C 22.472656 -19.585938 23.046875 -17.5 23.046875 -14.8125 L 23.046875 0 L 19.109375 0 L 19.109375 -14.25 C 19.109375 -15.363281 18.988281 -16.351562 18.75 -17.21875 C 18.519531 -18.082031 18.097656 -18.757812 17.484375 -19.25 C 16.878906 -19.75 16.003906 -20 14.859375 -20 C 13.148438 -20 11.710938 -19.609375 10.546875 -18.828125 C 9.378906 -18.054688 8.441406 -17.207031 7.734375 -16.28125 L 7.734375 0 Z M 3.796875 0 "/>
</g>
<g id="glyph-2-2">
<path d="M 3.796875 8.4375 L 3.796875 -22.984375 L 7.625 -22.984375 L 7.734375 -19.21875 C 8.554688 -20.445312 9.613281 -21.445312 10.90625 -22.21875 C 12.207031 -22.988281 13.710938 -23.375 15.421875 -23.375 C 17.316406 -23.375 18.945312 -22.929688 20.3125 -22.046875 C 21.675781 -21.160156 22.734375 -19.832031 23.484375 -18.0625 C 24.234375 -16.300781 24.609375 -14.109375 24.609375 -11.484375 C 24.609375 -8.890625 24.207031 -6.707031 23.40625 -4.9375 C 22.613281 -3.164062 21.492188 -1.828125 20.046875 -0.921875 C 18.597656 -0.0234375 16.898438 0.421875 14.953125 0.421875 C 13.316406 0.421875 11.882812 0.0976562 10.65625 -0.546875 C 9.4375 -1.203125 8.457031 -2.097656 7.71875 -3.234375 L 7.71875 8.4375 Z M 14.21875 -2.8125 C 16.3125 -2.8125 17.890625 -3.5625 18.953125 -5.0625 C 20.015625 -6.5625 20.546875 -8.703125 20.546875 -11.484375 C 20.546875 -14.304688 20.050781 -16.460938 19.0625 -17.953125 C 18.070312 -19.441406 16.617188 -20.1875 14.703125 -20.1875 C 13.015625 -20.1875 11.59375 -19.738281 10.4375 -18.84375 C 9.28125 -17.945312 8.378906 -16.90625 7.734375 -15.71875 L 7.734375 -6.84375 C 8.367188 -5.644531 9.21875 -4.671875 10.28125 -3.921875 C 11.351562 -3.179688 12.664062 -2.8125 14.21875 -2.8125 Z M 14.21875 -2.8125 "/>
</g>
<g id="glyph-2-3">
<path d="M 11.09375 0.359375 C 8.425781 0.359375 6.503906 -0.378906 5.328125 -1.859375 C 4.148438 -3.335938 3.5625 -5.375 3.5625 -7.96875 L 3.5625 -22.984375 L 7.53125 -22.984375 L 7.53125 -8.515625 C 7.53125 -7.472656 7.644531 -6.539062 7.875 -5.71875 C 8.113281 -4.90625 8.5625 -4.269531 9.21875 -3.8125 C 9.882812 -3.363281 10.835938 -3.140625 12.078125 -3.140625 C 13.804688 -3.140625 15.253906 -3.492188 16.421875 -4.203125 C 17.585938 -4.921875 18.519531 -5.753906 19.21875 -6.703125 L 19.21875 -22.984375 L 23.1875 -22.984375 L 23.1875 0 L 19.390625 0 L 19.265625 -3.53125 C 18.535156 -2.625 17.492188 -1.75 16.140625 -0.90625 C 14.796875 -0.0625 13.113281 0.359375 11.09375 0.359375 Z M 11.09375 0.359375 "/>
</g>
<g id="glyph-2-4">
<path d="M 11.46875 0 C 9.613281 0 8.1875 -0.289062 7.1875 -0.875 C 6.195312 -1.46875 5.515625 -2.316406 5.140625 -3.421875 C 4.773438 -4.535156 4.59375 -5.875 4.59375 -7.4375 L 4.59375 -19.796875 L 0.75 -19.796875 L 0.75 -22.984375 L 4.59375 -22.984375 L 4.59375 -28.234375 L 8.515625 -28.234375 L 8.515625 -22.984375 L 14.171875 -22.984375 L 14.171875 -19.796875 L 8.515625 -19.796875 L 8.515625 -7.625 C 8.515625 -6.1875 8.695312 -5.085938 9.0625 -4.328125 C 9.4375 -3.566406 10.320312 -3.1875 11.71875 -3.1875 L 14.21875 -3.1875 L 14.21875 0 Z M 11.46875 0 "/>
</g>
<g id="glyph-2-5">
<path d="M 11.9375 0.421875 C 10.644531 0.421875 9.421875 0.28125 8.265625 0 C 7.109375 -0.28125 6.085938 -0.726562 5.203125 -1.34375 C 4.328125 -1.957031 3.640625 -2.765625 3.140625 -3.765625 C 2.648438 -4.765625 2.40625 -5.972656 2.40625 -7.390625 L 6.203125 -7.390625 C 6.203125 -5.585938 6.753906 -4.320312 7.859375 -3.59375 C 8.972656 -2.863281 10.363281 -2.5 12.03125 -2.5 C 13.519531 -2.5 14.75 -2.785156 15.71875 -3.359375 C 16.6875 -3.929688 17.171875 -4.878906 17.171875 -6.203125 C 17.171875 -7.335938 16.734375 -8.175781 15.859375 -8.71875 C 14.992188 -9.269531 13.457031 -9.804688 11.25 -10.328125 C 9.457031 -10.753906 7.945312 -11.242188 6.71875 -11.796875 C 5.5 -12.359375 4.582031 -13.066406 3.96875 -13.921875 C 3.351562 -14.785156 3.046875 -15.867188 3.046875 -17.171875 C 3.046875 -18.191406 3.257812 -19.09375 3.6875 -19.875 C 4.125 -20.65625 4.726562 -21.300781 5.5 -21.8125 C 6.28125 -22.332031 7.195312 -22.722656 8.25 -22.984375 C 9.3125 -23.242188 10.453125 -23.375 11.671875 -23.375 C 12.890625 -23.375 14.023438 -23.234375 15.078125 -22.953125 C 16.140625 -22.671875 17.078125 -22.226562 17.890625 -21.625 C 18.703125 -21.03125 19.34375 -20.257812 19.8125 -19.3125 C 20.28125 -18.375 20.515625 -17.242188 20.515625 -15.921875 L 16.703125 -15.921875 C 16.703125 -17.554688 16.210938 -18.710938 15.234375 -19.390625 C 14.265625 -20.066406 13.078125 -20.40625 11.671875 -20.40625 C 10.253906 -20.40625 9.101562 -20.148438 8.21875 -19.640625 C 7.34375 -19.140625 6.90625 -18.359375 6.90625 -17.296875 C 6.90625 -16.679688 7.101562 -16.160156 7.5 -15.734375 C 7.894531 -15.304688 8.554688 -14.921875 9.484375 -14.578125 C 10.410156 -14.242188 11.660156 -13.890625 13.234375 -13.515625 C 14.953125 -13.109375 16.390625 -12.617188 17.546875 -12.046875 C 18.710938 -11.484375 19.585938 -10.757812 20.171875 -9.875 C 20.765625 -8.988281 21.0625 -7.851562 21.0625 -6.46875 C 21.0625 -5.269531 20.828125 -4.234375 20.359375 -3.359375 C 19.898438 -2.484375 19.257812 -1.765625 18.4375 -1.203125 C 17.613281 -0.648438 16.644531 -0.242188 15.53125 0.015625 C 14.425781 0.285156 13.226562 0.421875 11.9375 0.421875 Z M 11.9375 0.421875 "/>
</g>
<g id="glyph-3-0">
<path d="M 17.703125 0.421875 C 14.378906 0.421875 11.59375 -0.269531 9.34375 -1.65625 C 7.09375 -3.039062 5.394531 -4.953125 4.25 -7.390625 C 3.113281 -9.828125 2.546875 -12.648438 2.546875 -15.859375 C 2.546875 -19.066406 3.113281 -21.898438 4.25 -24.359375 C 5.394531 -26.816406 7.09375 -28.738281 9.34375 -30.125 C 11.59375 -31.507812 14.378906 -32.203125 17.703125 -32.203125 C 21.023438 -32.203125 23.800781 -31.507812 26.03125 -30.125 C 28.269531 -28.738281 29.957031 -26.816406 31.09375 -24.359375 C 32.238281 -21.898438 32.8125 -19.066406 32.8125 -15.859375 C 32.8125 -12.648438 32.238281 -9.828125 31.09375 -7.390625 C 29.957031 -4.953125 28.269531 -3.039062 26.03125 -1.65625 C 23.800781 -0.269531 21.023438 0.421875 17.703125 0.421875 Z M 17.703125 -3.046875 C 20.253906 -3.046875 22.316406 -3.617188 23.890625 -4.765625 C 25.460938 -5.910156 26.613281 -7.457031 27.34375 -9.40625 C 28.070312 -11.351562 28.4375 -13.503906 28.4375 -15.859375 C 28.4375 -18.234375 28.070312 -20.390625 27.34375 -22.328125 C 26.613281 -24.273438 25.460938 -25.828125 23.890625 -26.984375 C 22.316406 -28.148438 20.253906 -28.734375 17.703125 -28.734375 C 15.148438 -28.734375 13.082031 -28.148438 11.5 -26.984375 C 9.925781 -25.828125 8.773438 -24.273438 8.046875 -22.328125 C 7.328125 -20.390625 6.96875 -18.234375 6.96875 -15.859375 C 6.96875 -13.503906 7.328125 -11.351562 8.046875 -9.40625 C 8.773438 -7.457031 9.925781 -5.910156 11.5 -4.765625 C 13.082031 -3.617188 15.148438 -3.046875 17.703125 -3.046875 Z M 17.703125 -3.046875 "/>
</g>
<g id="glyph-3-1">
<path d="M 11.09375 0.359375 C 8.4375 0.359375 6.515625 -0.378906 5.328125 -1.859375 C 4.148438 -3.335938 3.5625 -5.378906 3.5625 -7.984375 L 3.5625 -22.984375 L 7.53125 -22.984375 L 7.53125 -8.515625 C 7.53125 -7.484375 7.644531 -6.554688 7.875 -5.734375 C 8.113281 -4.921875 8.5625 -4.285156 9.21875 -3.828125 C 9.882812 -3.367188 10.84375 -3.140625 12.09375 -3.140625 C 13.820312 -3.140625 15.265625 -3.492188 16.421875 -4.203125 C 17.585938 -4.921875 18.523438 -5.753906 19.234375 -6.703125 L 19.234375 -22.984375 L 23.203125 -22.984375 L 23.203125 0 L 19.40625 0 L 19.28125 -3.546875 C 18.539062 -2.628906 17.5 -1.75 16.15625 -0.90625 C 14.8125 -0.0625 13.125 0.359375 11.09375 0.359375 Z M 11.09375 0.359375 "/>
</g>
<g id="glyph-3-2">
<path d="M 11.46875 0 C 9.613281 0 8.191406 -0.289062 7.203125 -0.875 C 6.210938 -1.46875 5.53125 -2.316406 5.15625 -3.421875 C 4.789062 -4.535156 4.609375 -5.875 4.609375 -7.4375 L 4.609375 -19.8125 L 0.75 -19.8125 L 0.75 -22.984375 L 4.609375 -22.984375 L 4.609375 -28.25 L 8.515625 -28.25 L 8.515625 -22.984375 L 14.1875 -22.984375 L 14.1875 -19.8125 L 8.515625 -19.8125 L 8.515625 -7.625 C 8.515625 -6.1875 8.695312 -5.085938 9.0625 -4.328125 C 9.4375 -3.566406 10.328125 -3.1875 11.734375 -3.1875 L 14.234375 -3.1875 L 14.234375 0 Z M 11.46875 0 "/>
</g>
<g id="glyph-3-3">
<path d="M 3.796875 8.453125 L 3.796875 -22.984375 L 7.625 -22.984375 L 7.75 -19.234375 C 8.5625 -20.460938 9.613281 -21.460938 10.90625 -22.234375 C 12.207031 -23.003906 13.71875 -23.390625 15.4375 -23.390625 C 17.320312 -23.390625 18.945312 -22.941406 20.3125 -22.046875 C 21.6875 -21.160156 22.75 -19.835938 23.5 -18.078125 C 24.25 -16.316406 24.625 -14.125 24.625 -11.5 C 24.625 -8.894531 24.222656 -6.707031 23.421875 -4.9375 C 22.628906 -3.175781 21.507812 -1.84375 20.0625 -0.9375 C 18.613281 -0.03125 16.914062 0.421875 14.96875 0.421875 C 13.332031 0.421875 11.898438 0.0976562 10.671875 -0.546875 C 9.441406 -1.203125 8.457031 -2.097656 7.71875 -3.234375 L 7.71875 8.453125 Z M 14.234375 -2.8125 C 16.328125 -2.8125 17.90625 -3.5625 18.96875 -5.0625 C 20.03125 -6.5625 20.5625 -8.707031 20.5625 -11.5 C 20.5625 -14.3125 20.066406 -16.460938 19.078125 -17.953125 C 18.085938 -19.453125 16.628906 -20.203125 14.703125 -20.203125 C 13.023438 -20.203125 11.601562 -19.753906 10.4375 -18.859375 C 9.28125 -17.960938 8.382812 -16.914062 7.75 -15.71875 L 7.75 -6.84375 C 8.375 -5.644531 9.21875 -4.671875 10.28125 -3.921875 C 11.351562 -3.179688 12.671875 -2.8125 14.234375 -2.8125 Z M 14.234375 -2.8125 "/>
</g>
<g id="glyph-3-4">
<path d="M 11.9375 0.421875 C 10.65625 0.421875 9.429688 0.28125 8.265625 0 C 7.109375 -0.28125 6.085938 -0.726562 5.203125 -1.34375 C 4.328125 -1.957031 3.640625 -2.765625 3.140625 -3.765625 C 2.648438 -4.765625 2.40625 -5.972656 2.40625 -7.390625 L 6.203125 -7.390625 C 6.203125 -5.597656 6.753906 -4.332031 7.859375 -3.59375 C 8.972656 -2.863281 10.363281 -2.5 12.03125 -2.5 C 13.53125 -2.5 14.765625 -2.785156 15.734375 -3.359375 C 16.703125 -3.929688 17.1875 -4.878906 17.1875 -6.203125 C 17.1875 -7.335938 16.75 -8.179688 15.875 -8.734375 C 15 -9.285156 13.460938 -9.820312 11.265625 -10.34375 C 9.460938 -10.757812 7.945312 -11.25 6.71875 -11.8125 C 5.5 -12.375 4.582031 -13.082031 3.96875 -13.9375 C 3.351562 -14.789062 3.046875 -15.875 3.046875 -17.1875 C 3.046875 -18.207031 3.257812 -19.109375 3.6875 -19.890625 C 4.125 -20.671875 4.734375 -21.316406 5.515625 -21.828125 C 6.296875 -22.347656 7.210938 -22.738281 8.265625 -23 C 9.316406 -23.257812 10.457031 -23.390625 11.6875 -23.390625 C 12.894531 -23.390625 14.03125 -23.25 15.09375 -22.96875 C 16.15625 -22.6875 17.09375 -22.242188 17.90625 -21.640625 C 18.71875 -21.046875 19.359375 -20.273438 19.828125 -19.328125 C 20.296875 -18.390625 20.53125 -17.257812 20.53125 -15.9375 L 16.71875 -15.9375 C 16.71875 -17.570312 16.226562 -18.726562 15.25 -19.40625 C 14.269531 -20.082031 13.082031 -20.421875 11.6875 -20.421875 C 10.269531 -20.421875 9.117188 -20.164062 8.234375 -19.65625 C 7.359375 -19.15625 6.921875 -18.367188 6.921875 -17.296875 C 6.921875 -16.679688 7.113281 -16.160156 7.5 -15.734375 C 7.894531 -15.316406 8.554688 -14.9375 9.484375 -14.59375 C 10.410156 -14.257812 11.664062 -13.90625 13.25 -13.53125 C 14.957031 -13.113281 16.394531 -12.625 17.5625 -12.0625 C 18.726562 -11.5 19.601562 -10.769531 20.1875 -9.875 C 20.78125 -8.988281 21.078125 -7.851562 21.078125 -6.46875 C 21.078125 -5.269531 20.84375 -4.234375 20.375 -3.359375 C 19.914062 -2.484375 19.269531 -1.765625 18.4375 -1.203125 C 17.613281 -0.648438 16.644531 -0.242188 15.53125 0.015625 C 14.425781 0.285156 13.226562 0.421875 11.9375 0.421875 Z M 11.9375 0.421875 "/>
</g>
<g id="glyph-4-0">
<path d="M 5.09375 -9.671875 C 6.25 -12.347656 7.78125 -14.582031 9.6875 -16.375 C 11.601562 -18.164062 13.875 -19.0625 16.5 -19.0625 C 19.226562 -19.0625 22.476562 -17.863281 26.25 -15.46875 C 30.03125 -13.082031 32.898438 -11.890625 34.859375 -11.890625 C 36.796875 -11.890625 38.410156 -12.398438 39.703125 -13.421875 C 41.003906 -14.441406 42.316406 -16.035156 43.640625 -18.203125 L 46.375 -16.359375 C 45.394531 -14.328125 43.84375 -12.28125 41.71875 -10.21875 C 39.601562 -8.164062 37.035156 -7.140625 34.015625 -7.140625 C 31.097656 -7.140625 27.765625 -8.332031 24.015625 -10.71875 C 20.273438 -13.113281 17.414062 -14.3125 15.4375 -14.3125 C 13.769531 -14.3125 12.3125 -13.785156 11.0625 -12.734375 C 9.8125 -11.691406 8.707031 -10.164062 7.75 -8.15625 Z M 5.09375 -23.21875 C 6.25 -25.90625 7.78125 -28.140625 9.6875 -29.921875 C 11.601562 -31.710938 13.875 -32.609375 16.5 -32.609375 C 19.226562 -32.609375 22.476562 -31.410156 26.25 -29.015625 C 30.03125 -26.628906 32.898438 -25.4375 34.859375 -25.4375 C 36.796875 -25.4375 38.410156 -25.945312 39.703125 -26.96875 C 41.003906 -28 42.316406 -29.597656 43.640625 -31.765625 L 46.375 -29.921875 C 45.394531 -27.890625 43.84375 -25.84375 41.71875 -23.78125 C 39.601562 -21.71875 37.035156 -20.6875 34.015625 -20.6875 C 31.097656 -20.6875 27.765625 -21.878906 24.015625 -24.265625 C 20.273438 -26.660156 17.414062 -27.859375 15.4375 -27.859375 C 13.769531 -27.859375 12.3125 -27.332031 11.0625 -26.28125 C 9.8125 -25.238281 8.707031 -23.71875 7.75 -21.71875 Z M 5.09375 -23.21875 "/>
</g>
<g id="glyph-4-1">
<path d="M 14.71875 0.578125 C 13.664062 5.515625 12.054688 9.195312 9.890625 11.625 C 7.734375 14.050781 5.015625 15.265625 1.734375 15.265625 C 0.785156 15.265625 0.0351562 15.207031 -0.515625 15.09375 L 0.0625 12.09375 C 0.289062 12.15625 0.828125 12.1875 1.671875 12.1875 C 2.691406 12.1875 3.566406 11.925781 4.296875 11.40625 C 5.023438 10.882812 5.703125 9.972656 6.328125 8.671875 C 6.960938 7.378906 7.539062 5.582031 8.0625 3.28125 L 15.40625 -29.203125 L 9.625 -29.203125 L 10.140625 -31.546875 C 11.671875 -31.640625 12.769531 -31.765625 13.4375 -31.921875 C 14.101562 -32.085938 14.625 -32.328125 15 -32.640625 C 15.382812 -32.960938 15.707031 -33.378906 15.96875 -33.890625 C 16.226562 -34.398438 16.5625 -35.335938 16.96875 -36.703125 C 18.175781 -40.804688 20.035156 -43.882812 22.546875 -45.9375 C 25.066406 -48 28.273438 -49.03125 32.171875 -49.03125 C 34.398438 -49.03125 36.320312 -48.847656 37.9375 -48.484375 L 36.609375 -42.6875 L 33.609375 -42.6875 C 33.285156 -43.988281 32.867188 -44.921875 32.359375 -45.484375 C 31.847656 -46.054688 31.085938 -46.34375 30.078125 -46.34375 C 28.785156 -46.34375 27.6875 -45.984375 26.78125 -45.265625 C 25.882812 -44.546875 25.117188 -43.476562 24.484375 -42.0625 C 23.847656 -40.65625 23.253906 -38.757812 22.703125 -36.375 L 21.859375 -32.640625 L 30.625 -32.640625 L 29.875 -29.203125 L 21.0625 -29.203125 Z M 14.71875 0.578125 "/>
</g>
<g id="glyph-4-2">
<path d="M 16.296875 -15.4375 C 15.953125 -17.238281 15.597656 -18.96875 15.234375 -20.625 C 14.867188 -22.289062 14.488281 -23.835938 14.09375 -25.265625 C 13.707031 -26.703125 13.390625 -27.640625 13.140625 -28.078125 C 12.890625 -28.523438 12.625 -28.832031 12.34375 -29 C 12.0625 -29.175781 11.703125 -29.265625 11.265625 -29.265625 C 10.785156 -29.265625 10.351562 -29.15625 9.96875 -28.9375 C 9.582031 -28.71875 9.160156 -28.34375 8.703125 -27.8125 C 8.253906 -27.28125 7.648438 -26.441406 6.890625 -25.296875 L 4.671875 -26.765625 C 6.109375 -28.929688 7.488281 -30.550781 8.8125 -31.625 C 10.132812 -32.695312 11.691406 -33.234375 13.484375 -33.234375 C 14.191406 -33.234375 14.8125 -33.148438 15.34375 -32.984375 C 15.882812 -32.828125 16.359375 -32.582031 16.765625 -32.25 C 17.171875 -31.925781 17.535156 -31.5 17.859375 -30.96875 C 18.179688 -30.445312 18.488281 -29.734375 18.78125 -28.828125 C 19.070312 -27.929688 19.347656 -26.816406 19.609375 -25.484375 C 19.878906 -24.160156 20.113281 -22.78125 20.3125 -21.34375 L 20.65625 -21.34375 C 22.84375 -24.414062 24.5 -26.660156 25.625 -28.078125 C 26.75 -29.503906 27.695312 -30.566406 28.46875 -31.265625 C 29.25 -31.960938 30 -32.453125 30.71875 -32.734375 C 31.4375 -33.015625 32.382812 -33.15625 33.5625 -33.15625 C 34.632812 -33.15625 35.515625 -33.019531 36.203125 -32.75 L 34.828125 -26.5625 L 32.4375 -26.5625 C 32.300781 -27.519531 31.90625 -28 31.25 -28 C 31.039062 -28 30.820312 -27.960938 30.59375 -27.890625 C 30.363281 -27.828125 30.082031 -27.679688 29.75 -27.453125 C 29.425781 -27.222656 28.945312 -26.78125 28.3125 -26.125 C 27.675781 -25.46875 26.957031 -24.660156 26.15625 -23.703125 C 25.363281 -22.742188 24.546875 -21.738281 23.703125 -20.6875 L 21.375 -17.796875 C 21.78125 -15.609375 22.164062 -13.71875 22.53125 -12.125 C 22.894531 -10.53125 23.21875 -9.203125 23.5 -8.140625 C 23.789062 -7.085938 24.046875 -6.253906 24.265625 -5.640625 C 24.484375 -5.023438 24.71875 -4.5625 24.96875 -4.25 C 25.21875 -3.945312 25.472656 -3.734375 25.734375 -3.609375 C 25.992188 -3.484375 26.296875 -3.421875 26.640625 -3.421875 C 27.253906 -3.421875 27.847656 -3.65625 28.421875 -4.125 C 29.003906 -4.601562 29.84375 -5.6875 30.9375 -7.375 L 33.15625 -5.90625 C 31.5625 -3.539062 30.117188 -1.875 28.828125 -0.90625 C 27.546875 0.0585938 26.019531 0.546875 24.25 0.546875 C 23.269531 0.546875 22.4375 0.367188 21.75 0.015625 C 21.070312 -0.335938 20.476562 -0.898438 19.96875 -1.671875 C 19.46875 -2.441406 19.023438 -3.648438 18.640625 -5.296875 C 17.941406 -8.210938 17.507812 -10.441406 17.34375 -11.984375 L 17 -11.984375 C 14.59375 -8.585938 12.800781 -6.148438 11.625 -4.671875 C 10.457031 -3.191406 9.488281 -2.097656 8.71875 -1.390625 C 7.957031 -0.691406 7.21875 -0.199219 6.5 0.078125 C 5.789062 0.367188 4.84375 0.515625 3.65625 0.515625 C 2.582031 0.515625 1.707031 0.378906 1.03125 0.109375 L 2.390625 -6.078125 L 4.78125 -6.078125 C 4.914062 -5.117188 5.3125 -4.640625 5.96875 -4.640625 C 6.289062 -4.640625 6.628906 -4.722656 6.984375 -4.890625 C 7.335938 -5.066406 7.84375 -5.476562 8.5 -6.125 C 9.164062 -6.78125 10.078125 -7.800781 11.234375 -9.1875 C 12.398438 -10.570312 14.085938 -12.65625 16.296875 -15.4375 Z M 16.296875 -15.4375 "/>
</g>
</g>
</defs>
<path fill-rule="evenodd" fill="rgb(100%, 100%, 100%)" fill-opacity="1" d="M 0 540.136719 L 959.761719 540.136719 L 959.761719 -0.00390625 L 0 -0.00390625 Z M 0 540.136719 "/>
<path fill-rule="evenodd" fill="rgb(81.999207%, 81.999207%, 81.999207%)" fill-opacity="0.50196" stroke-width="1.5" stroke-linecap="butt" stroke-linejoin="miter" stroke="rgb(45.498657%, 45.498657%, 45.498657%)" stroke-opacity="1" stroke-miterlimit="10" d="M 216 356.109375 C 216 376.929688 232.871094 393.800781 253.679688 393.800781 L 404.398438 393.800781 C 425.210938 393.800781 442.078125 376.929688 442.078125 356.109375 L 442.078125 200.320312 C 442.078125 179.5 425.210938 162.628906 404.398438 162.628906 L 253.679688 162.628906 C 232.871094 162.628906 216 179.5 216 200.320312 Z M 216 356.109375 " transform="matrix(1, 0, 0, -1, 0, 540)"/>
<g fill="rgb(45.498657%, 45.498657%, 45.498657%)" fill-opacity="1">
<use xlink:href="#glyph-0-0" x="242.59" y="241.82"/>
</g>
<g fill="rgb(45.498657%, 45.498657%, 45.498657%)" fill-opacity="1">
<use xlink:href="#glyph-0-1" x="285.8494" y="241.82"/>
<use xlink:href="#glyph-0-2" x="304.59514" y="241.82"/>
</g>
<g fill="rgb(45.498657%, 45.498657%, 45.498657%)" fill-opacity="1">
<use xlink:href="#glyph-0-3" x="343.384402" y="241.82"/>
</g>
<g fill="rgb(45.498657%, 45.498657%, 45.498657%)" fill-opacity="1">
<use xlink:href="#glyph-0-4" x="380.875882" y="241.82"/>
<use xlink:href="#glyph-0-5" x="415.988095" y="241.82"/>
</g>
<g fill="rgb(45.498657%, 45.498657%, 45.498657%)" fill-opacity="1">
<use xlink:href="#glyph-1-0" x="272.23" y="328.34"/>
</g>
<g fill="rgb(45.498657%, 45.498657%, 45.498657%)" fill-opacity="1">
<use xlink:href="#glyph-1-1" x="315.5044" y="328.34"/>
</g>
<g fill="rgb(45.498657%, 45.498657%, 45.498657%)" fill-opacity="1">
<use xlink:href="#glyph-1-2" x="354.379236" y="328.34"/>
</g>
<g fill="rgb(45.498657%, 45.498657%, 45.498657%)" fill-opacity="1">
<use xlink:href="#glyph-2-0" x="22.37" y="277.55"/>
</g>
<g fill="rgb(45.498657%, 45.498657%, 45.498657%)" fill-opacity="1">
<use xlink:href="#glyph-2-1" x="34.641756" y="277.55"/>
<use xlink:href="#glyph-2-2" x="61.26277" y="277.55"/>
</g>
<g fill="rgb(45.498657%, 45.498657%, 45.498657%)" fill-opacity="1">
<use xlink:href="#glyph-2-3" x="87.980412" y="277.55"/>
</g>
<g fill="rgb(45.498657%, 45.498657%, 45.498657%)" fill-opacity="1">
<use xlink:href="#glyph-2-4" x="115.326136" y="277.55"/>
</g>
<g fill="rgb(45.498657%, 45.498657%, 45.498657%)" fill-opacity="1">
<use xlink:href="#glyph-2-5" x="130.448418" y="277.55"/>
</g>
<path fill-rule="nonzero" fill="rgb(45.498657%, 45.498657%, 45.498657%)" fill-opacity="1" d="M 180 258.429688 L 201.160156 258.429688 L 201.160156 264.429688 L 180 264.429688 Z M 198.160156 252.429688 L 216.148438 261.429688 L 198.160156 270.429688 Z M 198.160156 252.429688 "/>
<g fill="rgb(45.498657%, 45.498657%, 45.498657%)" fill-opacity="1">
<use xlink:href="#glyph-3-0" x="488.61" y="278.71"/>
<use xlink:href="#glyph-3-1" x="523.994148" y="278.71"/>
</g>
<g fill="rgb(45.498657%, 45.498657%, 45.498657%)" fill-opacity="1">
<use xlink:href="#glyph-3-2" x="550.580598" y="278.71"/>
</g>
<g fill="rgb(45.498657%, 45.498657%, 45.498657%)" fill-opacity="1">
<use xlink:href="#glyph-3-3" x="566.387451" y="278.71"/>
</g>
<g fill="rgb(45.498657%, 45.498657%, 45.498657%)" fill-opacity="1">
<use xlink:href="#glyph-3-1" x="593.070579" y="278.71"/>
</g>
<g fill="rgb(45.498657%, 45.498657%, 45.498657%)" fill-opacity="1">
<use xlink:href="#glyph-3-2" x="619.753707" y="278.71"/>
</g>
<g fill="rgb(45.498657%, 45.498657%, 45.498657%)" fill-opacity="1">
<use xlink:href="#glyph-3-4" x="635.56056" y="278.71"/>
</g>
<path fill-rule="nonzero" fill="rgb(45.498657%, 45.498657%, 45.498657%)" fill-opacity="1" d="M 442.078125 259.871094 L 466.238281 259.871094 L 466.238281 265.871094 L 442.078125 265.871094 Z M 463.238281 253.871094 L 481.230469 262.871094 L 463.238281 271.871094 Z M 463.238281 253.871094 "/>
<g fill="rgb(26.699829%, 47.099304%, 90.99884%)" fill-opacity="1">
<use xlink:href="#glyph-4-0" x="684.42" y="284.42"/>
</g>
<g fill="rgb(26.699829%, 47.099304%, 90.99884%)" fill-opacity="1">
<use xlink:href="#glyph-4-1" x="755.4" y="284.42"/>
</g>
<path fill-rule="evenodd" fill="rgb(26.699829%, 47.099304%, 90.99884%)" fill-opacity="1" d="M 865.988281 231.730469 C 872.621094 233.480469 877.71875 237.269531 881.28125 243.078125 C 884.839844 248.890625 886.621094 255.898438 886.621094 264.101562 C 886.621094 272.339844 884.839844 279.351562 881.300781 285.128906 C 877.75 290.921875 872.648438 294.691406 865.988281 296.441406 L 865.171875 293.808594 C 870.421875 292.058594 874.320312 288.609375 876.878906 283.441406 C 879.441406 278.28125 880.71875 271.71875 880.71875 263.761719 C 880.71875 256.078125 879.441406 249.691406 876.898438 244.609375 C 874.351562 239.53125 870.410156 236.109375 865.058594 234.359375 Z M 822.128906 231.730469 L 823.050781 234.359375 C 817.730469 236.109375 813.789062 239.53125 811.238281 244.609375 C 808.679688 249.691406 807.398438 256.078125 807.398438 263.761719 C 807.398438 271.71875 808.679688 278.28125 811.238281 283.441406 C 813.789062 288.609375 817.699219 292.058594 822.949219 293.808594 L 822.128906 296.441406 C 815.46875 294.691406 810.371094 290.921875 806.820312 285.128906 C 803.269531 279.351562 801.5 272.339844 801.5 264.101562 C 801.5 255.898438 803.28125 248.890625 806.839844 243.078125 C 810.390625 237.269531 815.488281 233.480469 822.128906 231.730469 Z M 822.128906 231.730469 "/>
<g fill="rgb(26.699829%, 47.099304%, 90.99884%)" fill-opacity="1">
<use xlink:href="#glyph-4-2" x="825.02" y="284.42"/>
</g>
</svg>
